<svg width="68" height="46" viewBox="0 0 68 46" fill="none" xmlns="http://www.w3.org/2000/svg">
<path fill-rule="evenodd" clip-rule="evenodd" d="M29.6314 23.0248L29.6371 24.3526C29.6827 29.6194 30.0002 34.3185 30.5477 37.2964C30.5477 37.3501 31.145 40.3036 31.5254 41.2867C32.1227 42.7076 33.2027 43.9138 34.5568 44.678C35.6408 45.2232 36.7781 45.5 37.9685 45.5C38.9043 45.4566 40.4476 44.9857 41.5491 44.5909L42.4644 44.2401C48.5271 41.8319 60.1165 33.9629 64.555 29.1506L64.8823 28.8143L66.3427 27.2381C67.2632 26.0319 67.75 24.5573 67.75 22.9711C67.75 21.5501 67.3164 20.1292 66.4491 18.9808C66.1895 18.6088 65.7713 18.1315 65.399 17.7282L63.9775 16.2402C59.0858 11.2839 48.4943 4.33187 43.0044 2.02836C43.0044 1.9788 39.5926 0.553699 37.9685 0.5H37.7517C35.2604 0.5 32.9327 1.92097 31.7423 4.21764C31.417 4.84551 31.1051 6.07543 30.8678 7.15561L30.4414 9.19515C29.9545 12.4749 29.6314 17.5061 29.6314 23.0248ZM5.8872 17.3062C2.77406 17.3062 0.25 19.8549 0.25 22.9983C0.25 26.1418 2.77406 28.6905 5.8872 28.6905L19.7593 27.4636C22.2016 27.4636 24.1815 25.4685 24.1815 22.9983C24.1815 20.5323 22.2016 18.533 19.7593 18.533L5.8872 17.3062Z" fill="white"/>
</svg>
