<svg width="58" height="58" viewBox="0 0 58 58" fill="none" xmlns="http://www.w3.org/2000/svg">
<g id="Iconly/Bold/Image">
<g id="Image">
<path id="Image_2" fill-rule="evenodd" clip-rule="evenodd" d="M18.5268 53.1667H39.4711C47.6643 53.1667 53.1668 47.4195 53.1668 38.8679V19.1321C53.1668 10.5804 47.6643 4.83331 39.4736 4.83331H18.5268C10.336 4.83331 4.8335 10.5804 4.8335 19.1321V38.8679C4.8335 47.4195 10.336 53.1667 18.5268 53.1667ZM20.5391 26.5833C17.2073 26.5833 14.5002 23.8725 14.5002 20.5416C14.5002 17.2108 17.2073 14.5 20.5391 14.5C23.8684 14.5 26.578 17.2108 26.578 20.5416C26.578 23.8725 23.8684 26.5833 20.5391 26.5833ZM47.9005 36.0904C48.7097 38.1654 48.2893 40.6594 47.4242 42.7144C46.3986 45.1585 44.4351 47.009 41.9612 47.8171C40.8628 48.1762 39.7109 48.3334 38.5614 48.3334H18.1944C16.1676 48.3334 14.3742 47.847 12.904 46.9417C11.9829 46.3731 11.8201 45.0612 12.503 44.2108C13.6452 42.7892 14.7727 41.3627 15.9101 39.9236C18.0777 37.1703 19.5383 36.3722 21.1616 37.073C21.8202 37.3623 22.4812 37.7963 23.1616 38.2552C24.9745 39.4872 27.4945 41.1806 30.8141 39.3426C33.0858 38.0702 34.4034 35.8878 35.5507 33.9873L35.5699 33.9556C35.6512 33.8222 35.7318 33.6889 35.8122 33.5559C36.1978 32.9179 36.5782 32.2884 37.0086 31.7085C37.5481 30.9827 39.5481 28.7132 42.1386 30.3293C43.7887 31.3468 45.1763 32.7235 46.6611 34.1975C47.2273 34.7611 47.6307 35.4021 47.9005 36.0904Z" fill="#0D2481"/>
</g>
</g>
</svg>
