<svg width="50" height="50" viewBox="0 0 50 50" fill="none" xmlns="http://www.w3.org/2000/svg">
<path fill-rule="evenodd" clip-rule="evenodd" d="M25 0C11.221 0 0 11.2156 0 25.0145C0 38.7844 11.221 50 25 50C38.779 50 50 38.7844 50 25.0145C50 11.2156 38.779 0 25 0ZM16 18C16 16.8954 16.8954 16 18 16H22C23.1046 16 24 16.8954 24 18V32C24 33.1046 23.1046 34 22 34H18C16.8954 34 16 33.1046 16 32V18ZM29 16C27.8954 16 27 16.8954 27 18V32C27 33.1046 27.8954 34 29 34H33C34.1046 34 35 33.1046 35 32V18C35 16.8954 34.1046 16 33 16H29Z" fill="white"/>
</svg>
