<svg width="138" height="138" viewBox="0 0 138 138" fill="none" xmlns="http://www.w3.org/2000/svg">
<g id="Iconly/Bold/Tick Square">
<g id="Tick Square">
<path id="Tick Square_2" fill-rule="evenodd" clip-rule="evenodd" d="M44.1025 11.4994H93.955C113.448 11.4994 126.5 25.1844 126.5 45.5394V92.5227C126.5 112.814 113.448 126.499 93.955 126.499H44.1025C24.61 126.499 11.5 112.814 11.5 92.5227V45.5394C11.5 25.1844 24.61 11.4994 44.1025 11.4994ZM65.7223 86.1919L93.0348 58.8794C94.9898 56.9244 94.9898 53.7619 93.0348 51.7494C91.0798 49.7944 87.8598 49.7944 85.9048 51.7494L62.1573 75.4969L52.0948 65.4344C50.1398 63.4794 46.9198 63.4794 44.9648 65.4344C43.0098 67.3894 43.0098 70.5519 44.9648 72.5644L58.6498 86.1919C59.6273 87.1694 60.8923 87.6294 62.1573 87.6294C63.4798 87.6294 64.7448 87.1694 65.7223 86.1919Z" fill="white"/>
</g>
</g>
</svg>
