<svg width="58" height="58" viewBox="0 0 58 58" fill="none" xmlns="http://www.w3.org/2000/svg">
<g id="Iconly/Bold/Voice">
<g id="Voice">
<path id="Voice_2" fill-rule="evenodd" clip-rule="evenodd" d="M29.4226 36.7753H28.5774C22.7693 36.7753 18.0614 32.124 18.0614 26.3908V15.2179C18.0614 9.48233 22.7693 4.83331 28.5774 4.83331H29.4226C35.2307 4.83331 39.941 9.48233 39.941 15.2179V26.3908C39.941 32.124 35.2307 36.7753 29.4226 36.7753ZM44.8597 26.0585C44.8597 24.7801 45.9085 23.7467 47.2008 23.7467C48.493 23.7467 49.5418 24.7801 49.5418 26.0585C49.5418 36.4593 41.5682 45.0476 31.3424 46.2012V50.8548C31.3424 52.1309 30.2936 53.1666 29.0013 53.1666C27.7067 53.1666 26.6603 52.1309 26.6603 50.8548V46.2012C16.4322 45.0476 8.4585 36.4593 8.4585 26.0585C8.4585 24.7801 9.50729 23.7467 10.7996 23.7467C12.0918 23.7467 13.1406 24.7801 13.1406 26.0585C13.1406 34.6931 20.2551 41.7186 29.0013 41.7186C37.7452 41.7186 44.8597 34.6931 44.8597 26.0585Z" fill="#0D2481"/>
</g>
</g>
</svg>
